<svg width="100" height="100" viewBox="0 0 100 100" fill="none" xmlns="http://www.w3.org/2000/svg">
<path d="M75.196 6.00082C85.6382 5.91327 95.4756 12.7978 99.1352 25.868C99.7078 27.9132 99.9808 29.9896 99.9975 32.0843C100.376 59.2822 57.6734 88.8751 50.6725 93.5431C50.4337 93.7064 50.2151 93.8623 50.0114 94C50.0076 93.9975 50.0034 93.9951 49.9995 93.9926C49.9961 93.9949 49.9926 93.9978 49.9892 94C49.7851 93.862 49.5659 93.7067 49.3266 93.5431C42.328 88.8766 -0.30206 59.3321 0.00161443 32.1553C0.0125575 30.0365 0.286327 27.9362 0.865356 25.868C4.525 12.798 14.3625 5.91339 24.8046 6.00082H24.8268C28.3075 6.02989 31.8554 6.83468 35.2642 8.44208C46.0317 13.5203 49.1588 24.2306 49.9995 28.5089C50.8402 24.2308 53.9688 13.5205 64.7364 8.44208C68.1451 6.83473 71.6931 6.02993 75.1738 6.00082H75.196Z" fill="#FF9EE2"/>
</svg>
